<?xml version="1.0" standalone="no"?>
<!DOCTYPE svg PUBLIC "-//W3C//DTD SVG 1.1//EN" "http://www.w3.org/Graphics/SVG/1.1/DTD/svg11.dtd" >
<svg xmlns="http://www.w3.org/2000/svg">
<metadata></metadata>
<defs>
<font id="blairmditcttmediumregular" horiz-adv-x="727" >
<font-face units-per-em="2048" ascent="1638" descent="-410" />
<missing-glyph horiz-adv-x="500" />
<glyph horiz-adv-x="0" />
<glyph unicode="&#xd;" horiz-adv-x="681" />
<glyph unicode="!" horiz-adv-x="731" d="M510 1370l-57 -979h-197l-57 1092h311v-113zM514 0h-317v223h317v-223z" />
<glyph unicode="'" horiz-adv-x="317" d="M229 1436v-555h-139v555h139z" />
<glyph unicode="," d="M522 -57q0 -223 -256 -224h-47v121q154 4 154 86v74h-168v223h317v-280z" />
<glyph unicode="." d="M522 0h-317v223h317v-223z" />
<glyph unicode="0" horiz-adv-x="1908" d="M1733 741q0 -315 -229.5 -538t-549.5 -223q-324 0 -546 221q-231 227 -232 540q0 311 234 539q225 219 544 219q322 0 547 -219q232 -228 232 -539zM1485 741.5q0 237.5 -148 388.5q-150 150 -383 150t-381 -150q-150 -150 -149 -389q0 -238 149 -387 q152 -152 381.5 -151.5t380.5 151.5q150 150 150 387.5z" />
<glyph unicode="1" horiz-adv-x="784" d="M541 0h-246v1237l-238 -102v213q135 43 240 135h244v-1483z" />
<glyph unicode="2" horiz-adv-x="1716" d="M1569 0h-1506q25 551 617 735q23 6 268 74q147 41 211 78q106 57 107 160q0 104 -105 170q-106 63 -295 63q-317 0 -579 -207l-156 164q340 264 739 264q291 0 478 -133q184 -131 184 -338q0 -293 -391 -403q-172 -41 -428 -113q-266 -92 -359 -291h1215v-223z" />
<glyph unicode=":" d="M522 745h-317v224h317v-224zM522 0h-317v223h317v-223z" />
<glyph unicode="?" horiz-adv-x="1488" d="M45 1208q276 285 680 285q315 0 492 -119q178 -121 178 -319q0 -145 -72 -228q-76 -82 -240 -127q-90 -23 -276 -84q-121 -57 -131 -225h-199q-2 10 -2 49q0 152 78 246q76 92 250 154q223 80 237 88q90 49 90 135q0 213 -405 213q-326 0 -510 -201zM739 0h-317v223h317 v-223z" />
<glyph unicode="A" horiz-adv-x="1939" d="M1909 0h-269l-172 332h-997l-172 -332h-268l784 1483h309zM1348 555l-377 717l-379 -717h756z" />
<glyph unicode="B" horiz-adv-x="2164" d="M1737 764q254 -86 254 -375q0 -389 -561 -389h-1182v1483h1198q225 0 354 -110.5t129 -295.5q1 -202 -192 -313zM1450 862q100 0 172 60q68 57 68 141q0 92 -62 143q-63 53 -168 54h-966v-398h956zM1432 223q307 0 307 201q0 215 -269 215h-976v-416h938z" />
<glyph unicode="C" horiz-adv-x="2142" d="M1978 1145l-223 -80q-223 240 -631 240q-305 0 -499.5 -158t-194.5 -402q0 -252 193 -405q188 -156 516 -156q393 0 618 244l211 -117q-156 -184 -360.5 -268t-483.5 -84q-391 0 -653 197q-297 223 -297 589q0 358 301 586q260 199 649 199q555 0 854 -385z" />
<glyph unicode="D" horiz-adv-x="2181" d="M1186 1483q389 0 614 -205q225 -207 225 -553q0 -315 -239 -528q-225 -197 -553 -197h-985v1483h938zM1253 223q221 0 365 144q141 141 141 364q0 238 -151 383q-156 145 -402 146h-712v-1037h759z" />
<glyph unicode="E" horiz-adv-x="1923" d="M1800 0h-1552v1483h1495v-223h-1249v-379h868v-224h-868v-434h1306v-223z" />
<glyph unicode="F" horiz-adv-x="1783" d="M1743 1260h-1249v-379h868v-224h-868v-657h-246v1483h1495v-223z" />
<glyph unicode="G" horiz-adv-x="2236" d="M2066 766q0 -360 -258 -586q-260 -223 -688 -223q-393 0 -653 199q-297 223 -297 587q0 354 301 586q266 201 670 201q489 0 803 -359l-230 -114q-229 248 -594 248q-281 0 -473 -140q-221 -162 -221 -422q0 -248 190 -405q188 -156 504 -156q492 0 639 383h-690v223h997 v-22z" />
<glyph unicode="H" horiz-adv-x="2174" d="M1927 0h-246v657h-1187v-657h-246v1483h246v-602h1187v602h246v-1483z" />
<glyph unicode="I" horiz-adv-x="741" d="M494 0h-246v1483h246v-1483z" />
<glyph unicode="K" horiz-adv-x="1968" d="M1968 0h-315l-713 780l-446 -329v-451h-246v1483h246v-768l1038 768h354l-758 -561z" />
<glyph unicode="L" horiz-adv-x="1679" d="M1638 0h-1390v1483h246v-1260h1144v-223z" />
<glyph unicode="M" horiz-adv-x="2533" d="M2286 0h-246v1212h-6l-770 -966l-764 966h-6v-1212h-246v1483h305l713 -897l714 897h306v-1483z" />
<glyph unicode="N" horiz-adv-x="2179" d="M1931 0h-303l-1134 1217v-1217h-246v1483h305l1133 -1217v1217h245v-1483z" />
<glyph unicode="O" horiz-adv-x="2244" d="M2075 743q0 -365 -299 -589q-260 -197 -652 -197q-395 0 -655 199q-299 225 -299 587q0 356 303 586q268 201 651 201q387 0 650 -201q301 -232 301 -586zM1819 743q0 260 -222 422q-193 139 -473 140q-309 0 -503 -158q-195 -160 -195 -404q0 -252 190 -405 q188 -156 508 -156q317 0 506 156q189 157 189 405z" />
<glyph unicode="P" horiz-adv-x="1951" d="M1423 1483q229 0 361 -125q133 -127 133 -338q0 -221 -137.5 -338t-403.5 -117h-882v-565h-246v1483h1175zM1380 788q285 0 285 228q0 244 -301 244h-870v-472h886z" />
<glyph unicode="R" horiz-adv-x="2064" d="M1929 0h-284l-402 565h-749v-565h-246v1483h1169q236 0 367 -125q133 -127 133 -342q0 -188 -109 -303q-100 -106 -276 -135zM1380 788q285 0 285 228q0 244 -307 244h-864v-472h886z" />
<glyph unicode="S" horiz-adv-x="1923" d="M1546 1135q-328 168 -672 168q-225 0 -348 -54q-121 -53 -120 -147q0 -98 129 -144q88 -33 301 -45q326 -23 405 -32q281 -37 412 -138q133 -102 133 -284q0 -236 -209 -365t-600 -129q-565 0 -883 250l135 178q348 -213 750 -213q256 0 403 72q137 70 138 190 q0 143 -181 189q-90 23 -508 51q-367 25 -514 98q-172 86 -172 289q0 209 197 330q195 121 551 121q479 0 803 -220z" />
<glyph unicode="T" horiz-adv-x="1744" d="M1704 1260h-709v-1260h-245v1260h-709v223h1663v-223z" />
<glyph unicode="U" horiz-adv-x="2154" d="M1917 479q0 -229 -225 -375q-229 -150 -613 -149q-385 0 -616 149q-225 145 -225 375v1004h245v-944q0 -174 154 -267q150 -92 442.5 -92t442.5 92t149 267v944h246v-1004z" />
<glyph unicode="W" horiz-adv-x="2428" d="M2388 1483l-485 -1483h-318l-371 1239l-370 -1239h-314l-489 1483h274l373 -1241l371 1241h311l371 -1241l373 1241h274z" />
<glyph unicode="Y" horiz-adv-x="1888" d="M1878 1483l-811 -897v-586h-246v586l-811 897h305l631 -692l627 692h305z" />
<glyph unicode="a" horiz-adv-x="1730" d="M1704 0h-270l-146 270h-846l-145 -270h-270l686 1260h305zM1165 494l-299 557l-301 -557h600z" />
<glyph unicode="d" horiz-adv-x="1884" d="M1030 1260q334 0 533 -175q201 -176 200 -446q0 -250 -211 -475q-61 -68 -188 -113q-139 -51 -293 -51h-856v1260h815zM1087 223q182 0 297 113q115 115 115 287q0 188 -123 301q-121 113 -327 112h-588v-813h626z" />
<glyph unicode="e" horiz-adv-x="1673" d="M1571 0h-1356v1260h1309v-224h-1063v-270h739v-223h-739v-320h1110v-223z" />
<glyph unicode="f" horiz-adv-x="1574" d="M1524 1036h-1063v-270h739v-223h-739v-543h-246v1260h1309v-224z" />
<glyph unicode="g" horiz-adv-x="1927" d="M1788 690v-39q0 -307 -223 -497q-225 -190 -598 -191q-336 0 -564 166q-264 195 -264 504q0 305 264 500q231 170 578 170q418 0 692 -293l-231 -115q-193 184 -475 184q-248 0 -412 -127q-162 -125 -162 -319q0 -197 158 -324q156 -125 416 -125q389 0 514 283h-568v223 h875z" />
<glyph unicode="h" horiz-adv-x="1894" d="M1679 0h-245v543h-973v-543h-246v1260h246v-494h973v494h245v-1260z" />
<glyph unicode="i" horiz-adv-x="675" d="M461 0h-246v1260h246v-1260z" />
<glyph unicode="k" horiz-adv-x="1738" d="M1737 0h-318l-600 639l-358 -258v-381h-246v1260h246v-617l858 617h362l-671 -484z" />
<glyph unicode="l" horiz-adv-x="1484" d="M1434 0h-1219v1260h246v-1037h973v-223z" />
<glyph unicode="n" horiz-adv-x="1898" d="M1683 0h-366l-856 1051v-1051h-246v1260h367l856 -1051v1051h245v-1260z" />
<glyph unicode="o" horiz-adv-x="1935" d="M1796 633q0 -309 -264 -504q-225 -166 -563 -166t-566 166q-264 195 -264 504q0 307 267 500q236 170 563 170q326 0 561 -170q266 -193 266 -500zM1540 633q0 195 -160 321q-158 125 -411 125q-252 0 -414 -127q-162 -125 -162 -319q0 -201 158 -324q156 -125 418 -125 q260 0 415 125q156 123 156 324z" />
<glyph unicode="p" horiz-adv-x="1712" d="M1233 1260q199 0 319 -109q119 -106 119 -291q0 -193 -123 -293q-127 -104 -356 -104h-731v-463h-246v1260h1018zM1196 686q223 0 223 170q0 180 -237 180h-721v-350h735z" />
<glyph unicode="r" horiz-adv-x="1830" d="M1698 0h-283l-330 463h-624v-463h-246v1260h1018q199 0 319 -109q119 -106 119 -291q0 -311 -313 -383zM1196 686q223 0 223 170q0 180 -237 180h-721v-350h735z" />
<glyph unicode="s" horiz-adv-x="1667" d="M1356 948q-246 129 -535 129q-420 0 -420 -149q0 -86 158 -115q287 -25 430 -39q307 -31 441 -110q145 -90 145 -269q0 -203 -180 -313q-182 -111 -527 -111q-483 0 -776 222l133 174q262 -182 639 -183q213 0 330 56q117 51 117 143q0 102 -144 141q-80 23 -247 31 q-264 12 -322 18q-229 20 -344 101q-111 76 -111 227q0 180 179 287q174 104 495 104q426 0 690 -184z" />
<glyph unicode="t" horiz-adv-x="1552" d="M1501 1036h-602v-1036h-246v1036h-602v224h1450v-224z" />
<glyph unicode="u" horiz-adv-x="1865" d="M1665 414q0 -199 -199 -324q-201 -127 -532 -127q-334 0 -535 127q-199 125 -198 324v846h245v-797q0 -279 488 -279q485 0 485 279v797h246v-846z" />
<glyph unicode="w" horiz-adv-x="2129" d="M2089 1260l-428 -1260h-295l-301 1053l-301 -1053h-295l-428 1260h272l303 -1047l302 1047h294l301 -1047l304 1047h272z" />
<glyph unicode="&#x2000;" horiz-adv-x="789" />
<glyph unicode="&#x2001;" horiz-adv-x="1579" />
<glyph unicode="&#x2002;" horiz-adv-x="789" />
<glyph unicode="&#x2003;" horiz-adv-x="1579" />
<glyph unicode="&#x2004;" horiz-adv-x="526" />
<glyph unicode="&#x2005;" horiz-adv-x="394" />
<glyph unicode="&#x2006;" horiz-adv-x="263" />
<glyph unicode="&#x2007;" horiz-adv-x="263" />
<glyph unicode="&#x2008;" horiz-adv-x="197" />
<glyph unicode="&#x2009;" horiz-adv-x="315" />
<glyph unicode="&#x200a;" horiz-adv-x="87" />
<glyph unicode="&#x202f;" horiz-adv-x="315" />
<glyph unicode="&#x205f;" horiz-adv-x="394" />
<glyph unicode="&#x25fc;" horiz-adv-x="1024" d="M0 0v0v0v0v0z" />
</font>
</defs>
</svg>
