<?xml version="1.0" standalone="no"?>
<!DOCTYPE svg PUBLIC "-//W3C//DTD SVG 1.1//EN" "http://www.w3.org/Graphics/SVG/1.1/DTD/svg11.dtd" >
<svg xmlns="http://www.w3.org/2000/svg">
<metadata></metadata>
<defs>
<font id="tradegothicltstd-boldregular" horiz-adv-x="1024" >
<font-face units-per-em="2048" ascent="1638" descent="-410" />
<missing-glyph horiz-adv-x="500" />
<glyph horiz-adv-x="0" />
<glyph unicode="&#xd;" horiz-adv-x="681" />
<glyph unicode="+" horiz-adv-x="1228" d="M57 432h432v-432h250v432h432v250h-432v432h-250v-432h-432v-250z" />
<glyph unicode="," horiz-adv-x="569" d="M139 0h123l-104 -303h143l129 303v291h-291v-291z" />
<glyph unicode="." horiz-adv-x="569" d="M139 0h291v291h-291v-291z" />
<glyph unicode="/" horiz-adv-x="569" d="M-119 -20h250l557 1519h-250z" />
<glyph unicode="3" horiz-adv-x="1138" d="M70 434q0 -213 124.5 -333.5t368.5 -120.5q209 0 345 114.5t136 325.5q0 272 -213 356q84 43 131.5 132t47.5 190q0 190 -126 295.5t-333 105.5q-197 0 -323 -104.5t-128 -300.5h271q4 76 53 124t125 48q90 0 140 -49.5t50 -129.5q0 -102 -60.5 -146t-203.5 -44v-233 q156 -2 227.5 -55.5t71.5 -176.5q0 -98 -56 -158.5t-159 -60.5q-113 0 -166 53t-53 168h-270z" />
<glyph unicode=":" horiz-adv-x="569" d="M139 0h291v291h-291v-291zM139 614h291v291h-291v-291z" />
<glyph unicode="?" horiz-adv-x="909" d="M20 1176l236 -66q4 68 57.5 124t114.5 56q51 0 90 -33.5t39 -85.5q0 -61 -131 -246.5t-131 -232.5v-200h225v102q0 39 25.5 90t47 81t75.5 99q147 188 147 287q0 162 -113.5 255t-269.5 93t-264.5 -86t-147.5 -237zM262 0h291v291h-291v-291z" />
<glyph unicode="A" horiz-adv-x="1138" d="M27 0h272l80 311h391l72 -311h270l-356 1479h-363zM430 561l139 598h4l138 -598h-281z" />
<glyph unicode="B" horiz-adv-x="1138" d="M127 0h414q231 0 363 106.5t132 319.5q0 133 -48 211t-169 154q182 111 182 307q0 188 -123.5 284.5t-353.5 96.5h-397v-1479zM410 233v426h98q115 0 180.5 -54t65.5 -156q0 -98 -58.5 -157t-167.5 -59h-118zM410 893v352h112q98 0 147.5 -47t49.5 -131q0 -76 -58.5 -125 t-152.5 -49h-98z" />
<glyph unicode="C" horiz-adv-x="1138" d="M102 475q0 -496 466 -496l1 1q467 0 467 495v62h-282v-99q0 -117 -47.5 -163t-137.5 -46t-137 46.5t-47 162.5v602q0 117 47 163t137 46t137.5 -46t47.5 -163v-41h282v5q0 496 -466 495h-1q-467 0 -467 -495v-529z" />
<glyph unicode="D" horiz-adv-x="1138" d="M127 0h393q250 0 379 120t137 392v455q-8 272 -137 392t-379 120h-393v-1479zM410 250v979h98q131 0 188.5 -68.5t57.5 -226.5v-389q0 -160 -61.5 -227.5t-184.5 -67.5h-98z" />
<glyph unicode="E" d="M127 0h795v250h-512v389h374v250h-374v340h491v250h-774v-1479z" />
<glyph unicode="F" horiz-adv-x="909" d="M127 0h283v639h356v250h-356v340h454v250h-737v-1479z" />
<glyph unicode="G" horiz-adv-x="1138" d="M102 475q0 -495 465 -495h2q137 0 265 143l43 -123h147v758h-481v-234h198v-90q0 -94 -46 -149.5t-126 -55.5q-90 0 -137 46.5t-47 162.5v602q0 117 47 163t137 46q172 0 172 -252h283q-14 502 -455 502q-467 0 -467 -495v-529z" />
<glyph unicode="H" horiz-adv-x="1251" d="M143 0h283v639h399v-639h283v1479h-283v-590h-399v590h-283v-1479z" />
<glyph unicode="I" horiz-adv-x="569" d="M143 0h283v1479h-283v-1479z" />
<glyph unicode="J" horiz-adv-x="681" d="M20 -14q61 -6 140 -6q180 0 279.5 91t99.5 242v1166h-283v-1108q0 -82 -33 -112t-127 -30q-14 0 -40.5 3.5t-35.5 3.5v-250z" />
<glyph unicode="L" horiz-adv-x="909" d="M127 0h737v250h-454v1229h-283v-1479z" />
<glyph unicode="M" horiz-adv-x="1593" d="M143 0h242v1163h4l301 -1163h213l301 1163h4v-1163h242v1479h-395l-256 -971h-4l-256 971h-396v-1479z" />
<glyph unicode="N" horiz-adv-x="1251" d="M143 0h258v954h5l432 -954h270v1479h-258v-877h-4l-393 877h-310v-1479z" />
<glyph unicode="O" horiz-adv-x="1138" d="M102 475q0 -496 466 -496l1 1q467 0 467 495v529q0 496 -466 495h-1q-467 0 -467 -495v-529zM385 438v602q0 117 47 163t137 46t137.5 -46t47.5 -163v-602q0 -117 -47.5 -163t-137.5 -46t-137 46.5t-47 162.5z" />
<glyph unicode="P" horiz-adv-x="1138" d="M143 0h283v594h125q258 0 388 114.5t130 327.5t-130 328t-388 115h-408v-1479zM426 827v418h152q209 0 209 -208q0 -210 -209 -210h-152z" />
<glyph unicode="R" horiz-adv-x="1138" d="M127 0h283v602h135l246 -602h303l-279 659q223 84 223 377q0 213 -126 328t-375 115h-410v-1479zM410 836v409h145q201 0 201 -204.5t-201 -204.5h-145z" />
<glyph unicode="S" horiz-adv-x="1138" d="M66 395q109 -415 481 -415h2q221 0 346 114.5t125 306.5q0 129 -64.5 227.5t-157.5 157t-186.5 106.5t-158 100t-64.5 112q0 76 41 119t114.5 43t123 -47.5t84.5 -151.5l254 74q-39 164 -156 261t-299 97q-215 0 -330 -109.5t-115 -304.5q0 -96 47.5 -175t117 -127 t151.5 -96t151.5 -86t116.5 -92t47 -120q0 -82 -49 -129t-125 -47q-72 0 -134 59.5t-85 182.5z" />
<glyph unicode="T" d="M41 1229h330v-1229h282v1229h330v250h-942v-250z" />
<glyph unicode="U" horiz-adv-x="1251" d="M143 442q0 -236 127 -349t354.5 -113t355.5 113.5t128 348.5v1037h-283v-1035q0 -215 -200 -215q-199 0 -199 215v1035h-283v-1037z" />
<glyph unicode="V" horiz-adv-x="1138" d="M31 1479l379 -1479h321l377 1479h-277l-258 -1057h-4l-260 1057h-278z" />
<glyph unicode="W" horiz-adv-x="1705" d="M47 1479l309 -1479h271l223 1012h4l207 -1012h272l324 1479h-264l-197 -967h-4l-205 967h-272l-203 -967h-4l-199 967h-262z" />
<glyph unicode="Y" horiz-adv-x="1138" d="M25 1479l403 -881v-598h283v598l403 881h-301l-240 -596l-247 596h-301z" />
<glyph unicode="a" d="M66 246q0 -131 67.5 -198.5t188.5 -67.5q178 0 307 129q4 -20 9 -56.5t9 -52.5h258q-14 49 -14 90v707q0 338 -379 338q-170 0 -276 -80q-123 -90 -138 -267h258q0 59 42 98.5t101.5 39.5t96.5 -33t37 -100v-82q-135 -41 -226.5 -79t-175.5 -92.5t-124.5 -127 t-40.5 -166.5zM324 289q0 150 309 256v-271q-102 -102 -195 -102q-53 0 -83.5 30.5t-30.5 86.5z" />
<glyph unicode="b" d="M123 0h237v135h5q37 -59 115.5 -107t158.5 -48q147 0 215 110.5t68 331.5v270q0 221 -68 332t-215 111q-90 0 -258 -123v467h-258v-1479zM381 252v610q74 80 156 80q59 0 93 -56.5t34 -209.5v-238q0 -154 -34 -210t-93 -56q-82 0 -156 80z" />
<glyph unicode="c" d="M102 401q0 -422 409 -422l1 1q410 0 410 421v5h-258v-70q0 -63 -41 -97t-111 -34t-111 33.5t-41 97.5v442q0 63 41 97t111 34t111 -33.5t41 -97.5v-49h256q-6 406 -408 406q-410 0 -410 -422v-312z" />
<glyph unicode="d" d="M102 422q0 -221 68 -331.5t215 -110.5q80 0 159 48t115 107h5v-135h237v1479h-258v-467q-168 123 -258 123q-147 0 -215 -111t-68 -332v-270zM360 438v238q0 154 34 210t93 56q82 0 156 -80v-610q-74 -80 -156 -80q-59 0 -93 56.5t-34 209.5z" />
<glyph unicode="e" d="M102 375q0 -182 112 -288.5t298 -106.5q193 0 296 95t114 269h-258q0 -70 -37 -113t-115 -43q-68 0 -110 40t-42 120v148h562v260q0 170 -115 274.5t-295 104.5q-186 0 -298 -106.5t-112 -289.5v-364zM360 705v61q0 160 152 160t152 -160v-61h-304z" />
<glyph unicode="f" horiz-adv-x="569" d="M16 856h117v-856h258v856h154v209h-154v115q0 94 88 94h74v213q-86 12 -123 12q-152 0 -224.5 -71.5t-72.5 -256.5v-106h-117v-209z" />
<glyph unicode="g" d="M45 -190q0 -94 111.5 -148.5t314.5 -54.5q231 0 363.5 70.5t132.5 209.5q0 94 -48.5 153.5t-120 80t-155.5 29.5q-76 9 -142 9h-13h-11q-65 0 -109 11q-49 12 -49 45q0 12 7.5 23.5t20.5 23.5t18 19q45 -14 106 -15q373 0 373 439q0 49 -33 196q84 25 88 25q8 0 23.5 -3 t33 -7.5t23.5 -6.5v226q-123 0 -225 -129q-49 59 -129 94t-162 35q-381 0 -381 -420q0 -143 38 -235.5t130 -151.5q-43 -27 -70.5 -47.5t-56.5 -59.5t-29 -80q0 -94 107 -157q-23 -12 -50.5 -32t-51 -39t-39 -47t-15.5 -56zM344 -49l283 -25q55 -4 74.5 -17t19.5 -42 q0 -88 -195 -88q-235 0 -235 81q0 38 53 91zM328 684q0 131 30.5 186.5t104.5 55.5q135 0 135 -215q0 -141 -30.5 -188.5t-116.5 -47.5q-123 0 -123 209z" />
<glyph unicode="h" d="M123 0h258v842q113 100 168 100q94 0 94 -123v-819h258v848q0 152 -59.5 219.5t-179.5 67.5q-125 0 -281 -148v492h-258v-1479z" />
<glyph unicode="i" horiz-adv-x="569" d="M156 0h258v1114h-258v-1114zM156 1307h258v233h-258v-233z" />
<glyph unicode="k" d="M135 0h258v340l129 182l189 -522h272l-278 737l256 377h-289l-275 -432h-4v797h-258v-1479z" />
<glyph unicode="l" horiz-adv-x="569" d="M156 0h258v1479h-258v-1479z" />
<glyph unicode="m" horiz-adv-x="1478" d="M123 0h258v842q27 37 74 68.5t86 31.5q70 0 69 -94v-848h258v842q27 35 77 67.5t85 32.5q68 0 68 -94v-848h258v840q0 295 -236 295q-76 0 -138 -43t-136 -125q-51 168 -197 168q-74 0 -135 -38t-141 -110v127h-250v-1114z" />
<glyph unicode="n" d="M123 0h258v842q113 100 168 100q94 0 94 -123v-819h258v848q0 152 -59.5 219.5t-179.5 67.5q-74 0 -139.5 -38t-149.5 -110v127h-250v-1114z" />
<glyph unicode="o" d="M102 401q0 -422 409 -422l1 1q410 0 410 421v312q0 422 -410 422t-410 -422v-312zM360 336v442q0 63 41 97t111 34t111 -33.5t41 -97.5v-442q0 -63 -41 -97t-111 -34t-111 33.5t-41 97.5z" />
<glyph unicode="p" d="M123 -393h258v495q167 -122 257 -122h1q147 0 215 110.5t68 331.5v270q0 221 -68 332t-215 111q-80 0 -159 -48.5t-115 -107.5h-5v135h-237v-1507zM381 252v610q74 80 156 80q59 0 93 -56.5t34 -209.5v-238q0 -154 -34 -210t-93 -56q-82 0 -156 80z" />
<glyph unicode="r" horiz-adv-x="681" d="M123 0h258v762q0 49 34 86t93 37q37 0 137 -29v279q-176 0 -266 -168h-4v147h-252v-1114z" />
<glyph unicode="s" horiz-adv-x="909" d="M45 297q86 -190 184.5 -253.5t235.5 -63.5q166 0 268.5 88t102.5 249q0 92 -52.5 163t-126 112t-147.5 74.5t-126 72.5t-52 86q0 43 29.5 72t74.5 29q127 0 178 -152l213 82q-49 129 -148 204t-241 75q-147 0 -249.5 -81t-102.5 -231q0 -104 52 -178t126 -112.5 t147.5 -70.5t126 -75t52.5 -100q0 -45 -33 -72t-92 -27q-152 0 -189 172z" />
<glyph unicode="t" horiz-adv-x="569" d="M12 856h103v-655q0 -221 278 -221q86 0 148 10v217q-16 -2 -52 -2q-117 0 -116 82v569h166v209h-166v303h-258v-303h-103v-209z" />
<glyph unicode="u" d="M123 266q0 -152 59.5 -219t179.5 -67q74 0 139.5 37.5t149.5 109.5v-127h250v1114h-258v-842q-113 -100 -168 -100q-94 0 -94 123v819h-258v-848z" />
<glyph unicode="w" horiz-adv-x="1366" d="M27 1114l266 -1114h242l137 696h4l158 -696h241l262 1114h-241l-142 -696h-4l-157 696h-222l-149 -696h-4l-150 696h-241z" />
<glyph unicode="y" horiz-adv-x="909" d="M23 1114l258 -899q47 -166 47 -235q0 -43 -54.5 -95.5t-132.5 -52.5q-51 0 -75 4v-225q57 -4 81 -4q193 0 288 85t155 312l297 1110h-262l-162 -737h-4l-174 737h-262z" />
<glyph unicode="&#x2000;" horiz-adv-x="770" />
<glyph unicode="&#x2001;" horiz-adv-x="1540" />
<glyph unicode="&#x2002;" horiz-adv-x="770" />
<glyph unicode="&#x2003;" horiz-adv-x="1540" />
<glyph unicode="&#x2004;" horiz-adv-x="513" />
<glyph unicode="&#x2005;" horiz-adv-x="385" />
<glyph unicode="&#x2006;" horiz-adv-x="256" />
<glyph unicode="&#x2007;" horiz-adv-x="256" />
<glyph unicode="&#x2008;" horiz-adv-x="192" />
<glyph unicode="&#x2009;" horiz-adv-x="308" />
<glyph unicode="&#x200a;" horiz-adv-x="85" />
<glyph unicode="&#x2019;" horiz-adv-x="454" d="M82 1188h123l-105 -303h144l129 303v291h-291v-291z" />
<glyph unicode="&#x202f;" horiz-adv-x="308" />
<glyph unicode="&#x205f;" horiz-adv-x="385" />
<glyph unicode="&#x25fc;" d="M0 0z" />
</font>
</defs>
</svg>
